<svg width="15" height="30" viewBox="0 0 15 30" fill="none" xmlns="http://www.w3.org/2000/svg">
<path fill-rule="evenodd" clip-rule="evenodd" d="M3.27599 29.2285C3.27599 29.4348 3.45599 29.6013 3.67899 29.6013H9.42398C9.64698 29.6013 9.82698 29.4348 9.82698 29.2285V14.6841H13.992C14.202 14.6841 14.376 14.5361 14.394 14.3418L14.794 9.96084C14.7987 9.90946 14.7918 9.85774 14.7738 9.80894C14.7558 9.76015 14.727 9.71534 14.6893 9.67735C14.6516 9.63935 14.6059 9.60901 14.5548 9.58822C14.5038 9.56744 14.4487 9.55667 14.393 9.5566H9.82698V6.44754C9.82698 5.7186 10.465 5.1275 11.253 5.1275H14.463C14.686 5.1275 14.866 4.961 14.866 4.75471V0.372792C14.866 0.273921 14.8235 0.1791 14.7479 0.109188C14.6724 0.0392761 14.5698 0 14.463 0L9.03998 0C7.51154 0 6.0457 0.561659 4.96493 1.56142C3.88416 2.56118 3.27699 3.91714 3.27699 5.33101V9.5566H0.402999C0.29629 9.5566 0.193937 9.59575 0.118389 9.66546C0.0428406 9.73517 0.000264787 9.82976 0 9.92847V14.3113C0 14.5176 0.179999 14.6841 0.402999 14.6841H3.27599V29.2285Z" fill="black"/>
</svg>
