<svg width="32" height="25" viewBox="0 0 32 25" fill="none" xmlns="http://www.w3.org/2000/svg">
<path fill-rule="evenodd" clip-rule="evenodd" d="M31.8799 2.92381C30.8629 3.34933 29.7439 3.60742 28.6479 3.77762C29.1679 3.69622 29.9359 2.82483 30.2429 2.47146C30.7109 1.93401 31.0999 1.31979 31.3189 0.65838C31.3469 0.606577 31.3689 0.541825 31.3129 0.502048C31.2429 0.477072 31.1969 0.490022 31.1409 0.515923C29.9275 1.11531 28.6378 1.57212 27.3019 1.87574C27.2557 1.88906 27.2062 1.89006 27.1594 1.8786C27.1125 1.86715 27.0701 1.84372 27.0369 1.81098C26.9343 1.69706 26.8223 1.59067 26.7019 1.49277C26.1474 1.05088 25.5193 0.694774 24.8419 0.43822C23.9377 0.0994341 22.9624 -0.046026 21.9889 0.0127002C21.0433 0.0721715 20.1214 0.313174 19.2819 0.720358C18.4411 1.12698 17.6986 1.68787 17.0999 2.36878C16.4786 3.07578 16.0334 3.90075 15.7959 4.78499C15.5719 5.63603 15.5899 6.47597 15.7259 7.33534C15.7479 7.47779 15.7339 7.49722 15.5949 7.47779C10.3189 6.75348 5.94892 5.007 2.39992 1.26798C2.24592 1.10518 2.16192 1.10518 2.03592 1.28001C0.482914 3.43351 1.23592 6.89224 3.17592 8.59247C3.43492 8.8191 3.69992 9.04574 3.98692 9.25202C3.88292 9.27238 2.59192 9.14287 1.44092 8.59247C1.28692 8.50274 1.20992 8.55454 1.19592 8.7155C1.18592 8.94931 1.19998 9.18348 1.23792 9.41483C1.53592 11.5979 3.16992 13.6164 5.40792 14.4045C5.67392 14.5072 5.96692 14.5988 6.25392 14.6432C5.74392 14.7468 5.21892 14.8208 3.75692 14.7153C3.57492 14.682 3.50492 14.7662 3.57492 14.9281C4.67292 17.6986 7.04492 18.5228 8.82092 18.9918C9.05892 19.0306 9.29692 19.0306 9.53492 19.0824C9.52092 19.1019 9.50692 19.1019 9.49292 19.1213C8.90292 19.952 6.86092 20.5708 5.90992 20.8789C4.17992 21.4376 2.29692 21.6892 0.467914 21.5227C0.175914 21.4829 0.113914 21.4857 0.0349141 21.5227C-0.045086 21.569 0.0249141 21.6337 0.118914 21.7031C0.488915 21.9297 0.866915 22.1305 1.25192 22.3247C2.40786 22.8948 3.62779 23.3462 4.88992 23.6707C11.4269 25.3404 18.7899 24.1138 23.6999 19.6023C27.5529 16.0594 28.9039 11.1743 28.9039 6.28171C28.9039 6.09115 29.1479 5.9857 29.2939 5.88394C30.2969 5.18739 31.0939 4.353 31.8419 3.42148C32.0099 3.21242 31.9999 3.02649 31.9999 2.94971V2.92381C31.9999 2.84611 32.0099 2.86923 31.8799 2.92381Z" fill="black"/>
</svg>
