<svg width="226" height="60" viewBox="0 0 226 60" fill="none" xmlns="http://www.w3.org/2000/svg">
<rect x="65" y="1" width="160" height="58" fill="#DACFCF" stroke="black" stroke-width="2"/>
<path d="M86.2648 18.98L83.7448 23.48H81.2248L78.7048 18.98V26H75.4648V13.4H78.8848L82.4848 20.06L86.0848 13.4H89.5048V26H86.2648V18.98ZM102.562 26H92.5718V13.4H102.562V15.92H95.8118V18.35H101.122V20.87H95.8118V23.48H102.562V26ZM111.018 26H107.778V15.92H103.998V13.4H114.798V15.92H111.018V26ZM117.944 26H114.434L119.204 13.4H122.804L127.574 26H124.064L123.254 23.75H118.754L117.944 26ZM119.564 21.41H122.444L121.004 17.18L119.564 21.41ZM132.613 23.48H139.183V26H129.373V13.4H132.613V23.48ZM157.055 27.098C156.863 27.098 156.671 27.02 156.479 26.864C156.287 26.708 156.119 26.498 155.975 26.234C155.591 26.198 155.279 26.066 155.039 25.838C154.799 25.598 154.679 25.274 154.679 24.866C154.679 24.662 154.799 24.488 155.039 24.344C155.279 24.188 155.525 24.11 155.777 24.11C155.909 24.11 156.029 24.158 156.137 24.254C156.257 24.35 156.341 24.458 156.389 24.578C156.521 24.41 156.659 24.254 156.803 24.11L157.271 23.624C157.427 23.468 157.571 23.312 157.703 23.156C157.847 22.988 157.979 22.82 158.099 22.652L158.117 22.418C158.117 22.382 158.117 22.346 158.117 22.31C158.117 22.262 158.123 22.22 158.135 22.184C158.135 21.812 157.937 21.482 157.541 21.194C157.145 20.906 156.947 20.624 156.947 20.348C156.947 20.24 156.965 20.12 157.001 19.988C157.049 19.844 157.127 19.748 157.235 19.7C157.151 19.544 157.079 19.304 157.019 18.98C156.971 18.656 156.947 18.326 156.947 17.99C156.947 17.834 156.953 17.678 156.965 17.522C156.977 17.354 156.995 17.192 157.019 17.036C156.911 16.88 156.791 16.73 156.659 16.586C156.539 16.43 156.407 16.274 156.263 16.118C156.131 15.962 155.999 15.812 155.867 15.668C155.735 15.512 155.609 15.362 155.489 15.218C155.297 15.53 155.021 15.686 154.661 15.686C154.373 15.686 154.151 15.632 153.995 15.524C153.851 15.416 153.779 15.218 153.779 14.93C153.779 14.522 153.893 14.21 154.121 13.994C154.361 13.766 154.679 13.646 155.075 13.634C155.207 13.382 155.369 13.178 155.561 13.022C155.765 12.866 155.963 12.788 156.155 12.788C156.323 12.788 156.467 12.836 156.587 12.932C156.719 13.028 156.785 13.16 156.785 13.328C156.785 13.388 156.779 13.448 156.767 13.508C156.767 13.556 156.755 13.61 156.731 13.67C156.683 13.766 156.659 13.874 156.659 13.994C156.659 14.018 156.695 14.096 156.767 14.228C156.851 14.36 156.947 14.504 157.055 14.66C157.163 14.816 157.265 14.96 157.361 15.092C157.457 15.224 157.523 15.302 157.559 15.326C157.931 14.606 158.435 14.072 159.071 13.724C159.719 13.364 160.445 13.184 161.249 13.184C162.005 13.184 162.683 13.334 163.283 13.634C163.895 13.934 164.393 14.42 164.777 15.092C164.837 15.044 164.927 14.942 165.047 14.786C165.167 14.618 165.275 14.45 165.371 14.282C165.479 14.114 165.533 14.006 165.533 13.958C165.533 13.898 165.527 13.838 165.515 13.778C165.515 13.718 165.503 13.664 165.479 13.616C165.431 13.532 165.407 13.424 165.407 13.292C165.407 13.124 165.473 12.992 165.605 12.896C165.737 12.8 165.881 12.752 166.037 12.752C166.445 12.752 166.787 13.046 167.063 13.634C167.507 13.634 167.855 13.748 168.107 13.976C168.359 14.192 168.485 14.492 168.485 14.876C168.485 15.128 168.371 15.338 168.143 15.506C167.915 15.674 167.681 15.758 167.441 15.758C167.297 15.758 167.159 15.698 167.027 15.578C166.907 15.458 166.823 15.326 166.775 15.182C166.667 15.314 166.559 15.446 166.451 15.578C166.343 15.71 166.223 15.842 166.091 15.974C165.971 16.094 165.851 16.226 165.731 16.37C165.611 16.502 165.503 16.64 165.407 16.784C165.443 16.976 165.473 17.174 165.497 17.378C165.521 17.582 165.533 17.786 165.533 17.99C165.533 18.29 165.515 18.584 165.479 18.872C165.443 19.148 165.377 19.424 165.281 19.7C165.365 19.772 165.431 19.874 165.479 20.006C165.527 20.138 165.551 20.258 165.551 20.366C165.551 20.594 165.443 20.792 165.227 20.96C165.011 21.116 164.813 21.29 164.633 21.482C164.453 21.674 164.363 21.908 164.363 22.184L164.381 22.688C164.597 22.988 164.843 23.288 165.119 23.588C165.251 23.732 165.383 23.882 165.515 24.038C165.647 24.182 165.773 24.326 165.893 24.47C165.953 24.35 166.037 24.242 166.145 24.146C166.253 24.05 166.373 24.002 166.505 24.002C166.793 24.002 167.057 24.116 167.297 24.344C167.537 24.572 167.657 24.824 167.657 25.1C167.657 25.796 167.315 26.144 166.631 26.144L166.397 26.126C166.265 26.378 166.103 26.582 165.911 26.738C165.719 26.906 165.521 26.99 165.317 26.99C165.161 26.99 165.017 26.936 164.885 26.828C164.753 26.732 164.687 26.6 164.687 26.432C164.687 26.372 164.693 26.312 164.705 26.252C164.729 26.192 164.747 26.138 164.759 26.09C164.795 25.994 164.813 25.886 164.813 25.766C164.813 25.706 164.759 25.592 164.651 25.424C164.555 25.256 164.441 25.088 164.309 24.92C164.177 24.74 164.075 24.62 164.003 24.56L163.931 24.614C163.823 24.974 163.583 25.238 163.211 25.406H163.229C162.821 25.634 162.485 25.784 162.221 25.856C161.957 25.928 161.633 25.964 161.249 25.964C160.877 25.964 160.565 25.934 160.313 25.874C160.061 25.802 159.713 25.646 159.269 25.406H159.287C158.939 25.25 158.693 24.98 158.549 24.596L158.495 24.56C158.435 24.596 158.327 24.71 158.171 24.902C158.027 25.094 157.889 25.292 157.757 25.496C157.625 25.7 157.559 25.832 157.559 25.892C157.559 25.94 157.565 25.988 157.577 26.036C157.601 26.084 157.619 26.138 157.631 26.198C157.655 26.246 157.673 26.3 157.685 26.36C157.697 26.42 157.703 26.48 157.703 26.54C157.703 26.708 157.637 26.84 157.505 26.936C157.373 27.044 157.223 27.098 157.055 27.098ZM163.247 19.79C163.727 19.79 164.063 19.694 164.255 19.502C164.459 19.31 164.561 19.028 164.561 18.656C164.561 18.464 164.477 18.296 164.309 18.152C164.153 17.996 163.955 17.876 163.715 17.792C163.487 17.708 163.253 17.666 163.013 17.666C162.713 17.666 162.437 17.738 162.185 17.882C161.933 18.026 161.807 18.218 161.807 18.458C161.807 18.614 161.879 18.8 162.023 19.016C162.179 19.22 162.365 19.4 162.581 19.556C162.809 19.712 163.031 19.79 163.247 19.79ZM159.251 19.79C159.491 19.79 159.719 19.718 159.935 19.574C160.163 19.43 160.343 19.256 160.475 19.052C160.619 18.836 160.691 18.638 160.691 18.458C160.691 18.218 160.565 18.026 160.313 17.882C160.073 17.738 159.797 17.666 159.485 17.666C159.257 17.666 159.023 17.708 158.783 17.792C158.543 17.876 158.339 17.996 158.171 18.152C158.015 18.296 157.937 18.464 157.937 18.656C157.937 19.028 158.033 19.31 158.225 19.502C158.429 19.694 158.771 19.79 159.251 19.79ZM160.817 21.752C160.985 21.752 161.129 21.692 161.249 21.572C161.369 21.692 161.513 21.752 161.681 21.752C161.777 21.752 161.873 21.68 161.969 21.536C162.065 21.392 162.113 21.266 162.113 21.158C162.113 21.038 162.083 20.912 162.023 20.78C161.963 20.648 161.897 20.54 161.825 20.456C161.789 20.252 161.711 20.054 161.591 19.862C161.483 19.67 161.369 19.574 161.249 19.574C161.177 19.574 161.093 19.64 160.997 19.772C160.901 19.904 160.805 20.066 160.709 20.258C160.625 20.438 160.547 20.612 160.475 20.78C160.415 20.948 160.385 21.074 160.385 21.158C160.385 21.266 160.427 21.392 160.511 21.536C160.607 21.68 160.709 21.752 160.817 21.752ZM160.277 23.75C160.409 23.75 160.535 23.75 160.655 23.75C160.787 23.738 160.919 23.732 161.051 23.732H161.087V23.012C160.907 23.024 160.739 23.036 160.583 23.048C160.439 23.06 160.301 23.078 160.169 23.102L160.277 23.75ZM162.077 23.786L162.203 23.12C162.071 23.096 161.933 23.078 161.789 23.066C161.645 23.042 161.483 23.024 161.303 23.012V23.732C161.435 23.744 161.567 23.75 161.699 23.75C161.831 23.75 161.957 23.762 162.077 23.786ZM159.431 23.84C159.539 23.828 159.647 23.816 159.755 23.804C159.863 23.792 159.971 23.78 160.079 23.768L159.971 23.156C159.863 23.18 159.755 23.21 159.647 23.246C159.551 23.282 159.437 23.318 159.305 23.354L159.431 23.84ZM162.923 23.894L163.031 23.408C162.911 23.36 162.797 23.318 162.689 23.282C162.593 23.246 162.491 23.216 162.383 23.192L162.293 23.804C162.401 23.816 162.503 23.828 162.599 23.84C162.707 23.852 162.815 23.87 162.923 23.894ZM174.496 27.098C174.304 27.098 174.112 27.02 173.92 26.864C173.728 26.708 173.56 26.498 173.416 26.234C173.032 26.198 172.72 26.066 172.48 25.838C172.24 25.598 172.12 25.274 172.12 24.866C172.12 24.662 172.24 24.488 172.48 24.344C172.72 24.188 172.966 24.11 173.218 24.11C173.35 24.11 173.47 24.158 173.578 24.254C173.698 24.35 173.782 24.458 173.83 24.578C173.962 24.41 174.1 24.254 174.244 24.11L174.712 23.624C174.868 23.468 175.012 23.312 175.144 23.156C175.288 22.988 175.42 22.82 175.54 22.652L175.558 22.418C175.558 22.382 175.558 22.346 175.558 22.31C175.558 22.262 175.564 22.22 175.576 22.184C175.576 21.812 175.378 21.482 174.982 21.194C174.586 20.906 174.388 20.624 174.388 20.348C174.388 20.24 174.406 20.12 174.442 19.988C174.49 19.844 174.568 19.748 174.676 19.7C174.592 19.544 174.52 19.304 174.46 18.98C174.412 18.656 174.388 18.326 174.388 17.99C174.388 17.834 174.394 17.678 174.406 17.522C174.418 17.354 174.436 17.192 174.46 17.036C174.352 16.88 174.232 16.73 174.1 16.586C173.98 16.43 173.848 16.274 173.704 16.118C173.572 15.962 173.44 15.812 173.308 15.668C173.176 15.512 173.05 15.362 172.93 15.218C172.738 15.53 172.462 15.686 172.102 15.686C171.814 15.686 171.592 15.632 171.436 15.524C171.292 15.416 171.22 15.218 171.22 14.93C171.22 14.522 171.334 14.21 171.562 13.994C171.802 13.766 172.12 13.646 172.516 13.634C172.648 13.382 172.81 13.178 173.002 13.022C173.206 12.866 173.404 12.788 173.596 12.788C173.764 12.788 173.908 12.836 174.028 12.932C174.16 13.028 174.226 13.16 174.226 13.328C174.226 13.388 174.22 13.448 174.208 13.508C174.208 13.556 174.196 13.61 174.172 13.67C174.124 13.766 174.1 13.874 174.1 13.994C174.1 14.018 174.136 14.096 174.208 14.228C174.292 14.36 174.388 14.504 174.496 14.66C174.604 14.816 174.706 14.96 174.802 15.092C174.898 15.224 174.964 15.302 175 15.326C175.372 14.606 175.876 14.072 176.512 13.724C177.16 13.364 177.886 13.184 178.69 13.184C179.446 13.184 180.124 13.334 180.724 13.634C181.336 13.934 181.834 14.42 182.218 15.092C182.278 15.044 182.368 14.942 182.488 14.786C182.608 14.618 182.716 14.45 182.812 14.282C182.92 14.114 182.974 14.006 182.974 13.958C182.974 13.898 182.968 13.838 182.956 13.778C182.956 13.718 182.944 13.664 182.92 13.616C182.872 13.532 182.848 13.424 182.848 13.292C182.848 13.124 182.914 12.992 183.046 12.896C183.178 12.8 183.322 12.752 183.478 12.752C183.886 12.752 184.228 13.046 184.504 13.634C184.948 13.634 185.296 13.748 185.548 13.976C185.8 14.192 185.926 14.492 185.926 14.876C185.926 15.128 185.812 15.338 185.584 15.506C185.356 15.674 185.122 15.758 184.882 15.758C184.738 15.758 184.6 15.698 184.468 15.578C184.348 15.458 184.264 15.326 184.216 15.182C184.108 15.314 184 15.446 183.892 15.578C183.784 15.71 183.664 15.842 183.532 15.974C183.412 16.094 183.292 16.226 183.172 16.37C183.052 16.502 182.944 16.64 182.848 16.784C182.884 16.976 182.914 17.174 182.938 17.378C182.962 17.582 182.974 17.786 182.974 17.99C182.974 18.29 182.956 18.584 182.92 18.872C182.884 19.148 182.818 19.424 182.722 19.7C182.806 19.772 182.872 19.874 182.92 20.006C182.968 20.138 182.992 20.258 182.992 20.366C182.992 20.594 182.884 20.792 182.668 20.96C182.452 21.116 182.254 21.29 182.074 21.482C181.894 21.674 181.804 21.908 181.804 22.184L181.822 22.688C182.038 22.988 182.284 23.288 182.56 23.588C182.692 23.732 182.824 23.882 182.956 24.038C183.088 24.182 183.214 24.326 183.334 24.47C183.394 24.35 183.478 24.242 183.586 24.146C183.694 24.05 183.814 24.002 183.946 24.002C184.234 24.002 184.498 24.116 184.738 24.344C184.978 24.572 185.098 24.824 185.098 25.1C185.098 25.796 184.756 26.144 184.072 26.144L183.838 26.126C183.706 26.378 183.544 26.582 183.352 26.738C183.16 26.906 182.962 26.99 182.758 26.99C182.602 26.99 182.458 26.936 182.326 26.828C182.194 26.732 182.128 26.6 182.128 26.432C182.128 26.372 182.134 26.312 182.146 26.252C182.17 26.192 182.188 26.138 182.2 26.09C182.236 25.994 182.254 25.886 182.254 25.766C182.254 25.706 182.2 25.592 182.092 25.424C181.996 25.256 181.882 25.088 181.75 24.92C181.618 24.74 181.516 24.62 181.444 24.56L181.372 24.614C181.264 24.974 181.024 25.238 180.652 25.406H180.67C180.262 25.634 179.926 25.784 179.662 25.856C179.398 25.928 179.074 25.964 178.69 25.964C178.318 25.964 178.006 25.934 177.754 25.874C177.502 25.802 177.154 25.646 176.71 25.406H176.728C176.38 25.25 176.134 24.98 175.99 24.596L175.936 24.56C175.876 24.596 175.768 24.71 175.612 24.902C175.468 25.094 175.33 25.292 175.198 25.496C175.066 25.7 175 25.832 175 25.892C175 25.94 175.006 25.988 175.018 26.036C175.042 26.084 175.06 26.138 175.072 26.198C175.096 26.246 175.114 26.3 175.126 26.36C175.138 26.42 175.144 26.48 175.144 26.54C175.144 26.708 175.078 26.84 174.946 26.936C174.814 27.044 174.664 27.098 174.496 27.098ZM180.688 19.79C181.168 19.79 181.504 19.694 181.696 19.502C181.9 19.31 182.002 19.028 182.002 18.656C182.002 18.464 181.918 18.296 181.75 18.152C181.594 17.996 181.396 17.876 181.156 17.792C180.928 17.708 180.694 17.666 180.454 17.666C180.154 17.666 179.878 17.738 179.626 17.882C179.374 18.026 179.248 18.218 179.248 18.458C179.248 18.614 179.32 18.8 179.464 19.016C179.62 19.22 179.806 19.4 180.022 19.556C180.25 19.712 180.472 19.79 180.688 19.79ZM176.692 19.79C176.932 19.79 177.16 19.718 177.376 19.574C177.604 19.43 177.784 19.256 177.916 19.052C178.06 18.836 178.132 18.638 178.132 18.458C178.132 18.218 178.006 18.026 177.754 17.882C177.514 17.738 177.238 17.666 176.926 17.666C176.698 17.666 176.464 17.708 176.224 17.792C175.984 17.876 175.78 17.996 175.612 18.152C175.456 18.296 175.378 18.464 175.378 18.656C175.378 19.028 175.474 19.31 175.666 19.502C175.87 19.694 176.212 19.79 176.692 19.79ZM178.258 21.752C178.426 21.752 178.57 21.692 178.69 21.572C178.81 21.692 178.954 21.752 179.122 21.752C179.218 21.752 179.314 21.68 179.41 21.536C179.506 21.392 179.554 21.266 179.554 21.158C179.554 21.038 179.524 20.912 179.464 20.78C179.404 20.648 179.338 20.54 179.266 20.456C179.23 20.252 179.152 20.054 179.032 19.862C178.924 19.67 178.81 19.574 178.69 19.574C178.618 19.574 178.534 19.64 178.438 19.772C178.342 19.904 178.246 20.066 178.15 20.258C178.066 20.438 177.988 20.612 177.916 20.78C177.856 20.948 177.826 21.074 177.826 21.158C177.826 21.266 177.868 21.392 177.952 21.536C178.048 21.68 178.15 21.752 178.258 21.752ZM177.718 23.75C177.85 23.75 177.976 23.75 178.096 23.75C178.228 23.738 178.36 23.732 178.492 23.732H178.528V23.012C178.348 23.024 178.18 23.036 178.024 23.048C177.88 23.06 177.742 23.078 177.61 23.102L177.718 23.75ZM179.518 23.786L179.644 23.12C179.512 23.096 179.374 23.078 179.23 23.066C179.086 23.042 178.924 23.024 178.744 23.012V23.732C178.876 23.744 179.008 23.75 179.14 23.75C179.272 23.75 179.398 23.762 179.518 23.786ZM176.872 23.84C176.98 23.828 177.088 23.816 177.196 23.804C177.304 23.792 177.412 23.78 177.52 23.768L177.412 23.156C177.304 23.18 177.196 23.21 177.088 23.246C176.992 23.282 176.878 23.318 176.746 23.354L176.872 23.84ZM180.364 23.894L180.472 23.408C180.352 23.36 180.238 23.318 180.13 23.282C180.034 23.246 179.932 23.216 179.824 23.192L179.734 23.804C179.842 23.816 179.944 23.828 180.04 23.84C180.148 23.852 180.256 23.87 180.364 23.894ZM191.937 27.098C191.745 27.098 191.553 27.02 191.361 26.864C191.169 26.708 191.001 26.498 190.857 26.234C190.473 26.198 190.161 26.066 189.921 25.838C189.681 25.598 189.561 25.274 189.561 24.866C189.561 24.662 189.681 24.488 189.921 24.344C190.161 24.188 190.407 24.11 190.659 24.11C190.791 24.11 190.911 24.158 191.019 24.254C191.139 24.35 191.223 24.458 191.271 24.578C191.403 24.41 191.541 24.254 191.685 24.11L192.153 23.624C192.309 23.468 192.453 23.312 192.585 23.156C192.729 22.988 192.861 22.82 192.981 22.652L192.999 22.418C192.999 22.382 192.999 22.346 192.999 22.31C192.999 22.262 193.005 22.22 193.017 22.184C193.017 21.812 192.819 21.482 192.423 21.194C192.027 20.906 191.829 20.624 191.829 20.348C191.829 20.24 191.847 20.12 191.883 19.988C191.931 19.844 192.009 19.748 192.117 19.7C192.033 19.544 191.961 19.304 191.901 18.98C191.853 18.656 191.829 18.326 191.829 17.99C191.829 17.834 191.835 17.678 191.847 17.522C191.859 17.354 191.877 17.192 191.901 17.036C191.793 16.88 191.673 16.73 191.541 16.586C191.421 16.43 191.289 16.274 191.145 16.118C191.013 15.962 190.881 15.812 190.749 15.668C190.617 15.512 190.491 15.362 190.371 15.218C190.179 15.53 189.903 15.686 189.543 15.686C189.255 15.686 189.033 15.632 188.877 15.524C188.733 15.416 188.661 15.218 188.661 14.93C188.661 14.522 188.775 14.21 189.003 13.994C189.243 13.766 189.561 13.646 189.957 13.634C190.089 13.382 190.251 13.178 190.443 13.022C190.647 12.866 190.845 12.788 191.037 12.788C191.205 12.788 191.349 12.836 191.469 12.932C191.601 13.028 191.667 13.16 191.667 13.328C191.667 13.388 191.661 13.448 191.649 13.508C191.649 13.556 191.637 13.61 191.613 13.67C191.565 13.766 191.541 13.874 191.541 13.994C191.541 14.018 191.577 14.096 191.649 14.228C191.733 14.36 191.829 14.504 191.937 14.66C192.045 14.816 192.147 14.96 192.243 15.092C192.339 15.224 192.405 15.302 192.441 15.326C192.813 14.606 193.317 14.072 193.953 13.724C194.601 13.364 195.327 13.184 196.131 13.184C196.887 13.184 197.565 13.334 198.165 13.634C198.777 13.934 199.275 14.42 199.659 15.092C199.719 15.044 199.809 14.942 199.929 14.786C200.049 14.618 200.157 14.45 200.253 14.282C200.361 14.114 200.415 14.006 200.415 13.958C200.415 13.898 200.409 13.838 200.397 13.778C200.397 13.718 200.385 13.664 200.361 13.616C200.313 13.532 200.289 13.424 200.289 13.292C200.289 13.124 200.355 12.992 200.487 12.896C200.619 12.8 200.763 12.752 200.919 12.752C201.327 12.752 201.669 13.046 201.945 13.634C202.389 13.634 202.737 13.748 202.989 13.976C203.241 14.192 203.367 14.492 203.367 14.876C203.367 15.128 203.253 15.338 203.025 15.506C202.797 15.674 202.563 15.758 202.323 15.758C202.179 15.758 202.041 15.698 201.909 15.578C201.789 15.458 201.705 15.326 201.657 15.182C201.549 15.314 201.441 15.446 201.333 15.578C201.225 15.71 201.105 15.842 200.973 15.974C200.853 16.094 200.733 16.226 200.613 16.37C200.493 16.502 200.385 16.64 200.289 16.784C200.325 16.976 200.355 17.174 200.379 17.378C200.403 17.582 200.415 17.786 200.415 17.99C200.415 18.29 200.397 18.584 200.361 18.872C200.325 19.148 200.259 19.424 200.163 19.7C200.247 19.772 200.313 19.874 200.361 20.006C200.409 20.138 200.433 20.258 200.433 20.366C200.433 20.594 200.325 20.792 200.109 20.96C199.893 21.116 199.695 21.29 199.515 21.482C199.335 21.674 199.245 21.908 199.245 22.184L199.263 22.688C199.479 22.988 199.725 23.288 200.001 23.588C200.133 23.732 200.265 23.882 200.397 24.038C200.529 24.182 200.655 24.326 200.775 24.47C200.835 24.35 200.919 24.242 201.027 24.146C201.135 24.05 201.255 24.002 201.387 24.002C201.675 24.002 201.939 24.116 202.179 24.344C202.419 24.572 202.539 24.824 202.539 25.1C202.539 25.796 202.197 26.144 201.513 26.144L201.279 26.126C201.147 26.378 200.985 26.582 200.793 26.738C200.601 26.906 200.403 26.99 200.199 26.99C200.043 26.99 199.899 26.936 199.767 26.828C199.635 26.732 199.569 26.6 199.569 26.432C199.569 26.372 199.575 26.312 199.587 26.252C199.611 26.192 199.629 26.138 199.641 26.09C199.677 25.994 199.695 25.886 199.695 25.766C199.695 25.706 199.641 25.592 199.533 25.424C199.437 25.256 199.323 25.088 199.191 24.92C199.059 24.74 198.957 24.62 198.885 24.56L198.813 24.614C198.705 24.974 198.465 25.238 198.093 25.406H198.111C197.703 25.634 197.367 25.784 197.103 25.856C196.839 25.928 196.515 25.964 196.131 25.964C195.759 25.964 195.447 25.934 195.195 25.874C194.943 25.802 194.595 25.646 194.151 25.406H194.169C193.821 25.25 193.575 24.98 193.431 24.596L193.377 24.56C193.317 24.596 193.209 24.71 193.053 24.902C192.909 25.094 192.771 25.292 192.639 25.496C192.507 25.7 192.441 25.832 192.441 25.892C192.441 25.94 192.447 25.988 192.459 26.036C192.483 26.084 192.501 26.138 192.513 26.198C192.537 26.246 192.555 26.3 192.567 26.36C192.579 26.42 192.585 26.48 192.585 26.54C192.585 26.708 192.519 26.84 192.387 26.936C192.255 27.044 192.105 27.098 191.937 27.098ZM198.129 19.79C198.609 19.79 198.945 19.694 199.137 19.502C199.341 19.31 199.443 19.028 199.443 18.656C199.443 18.464 199.359 18.296 199.191 18.152C199.035 17.996 198.837 17.876 198.597 17.792C198.369 17.708 198.135 17.666 197.895 17.666C197.595 17.666 197.319 17.738 197.067 17.882C196.815 18.026 196.689 18.218 196.689 18.458C196.689 18.614 196.761 18.8 196.905 19.016C197.061 19.22 197.247 19.4 197.463 19.556C197.691 19.712 197.913 19.79 198.129 19.79ZM194.133 19.79C194.373 19.79 194.601 19.718 194.817 19.574C195.045 19.43 195.225 19.256 195.357 19.052C195.501 18.836 195.573 18.638 195.573 18.458C195.573 18.218 195.447 18.026 195.195 17.882C194.955 17.738 194.679 17.666 194.367 17.666C194.139 17.666 193.905 17.708 193.665 17.792C193.425 17.876 193.221 17.996 193.053 18.152C192.897 18.296 192.819 18.464 192.819 18.656C192.819 19.028 192.915 19.31 193.107 19.502C193.311 19.694 193.653 19.79 194.133 19.79ZM195.699 21.752C195.867 21.752 196.011 21.692 196.131 21.572C196.251 21.692 196.395 21.752 196.563 21.752C196.659 21.752 196.755 21.68 196.851 21.536C196.947 21.392 196.995 21.266 196.995 21.158C196.995 21.038 196.965 20.912 196.905 20.78C196.845 20.648 196.779 20.54 196.707 20.456C196.671 20.252 196.593 20.054 196.473 19.862C196.365 19.67 196.251 19.574 196.131 19.574C196.059 19.574 195.975 19.64 195.879 19.772C195.783 19.904 195.687 20.066 195.591 20.258C195.507 20.438 195.429 20.612 195.357 20.78C195.297 20.948 195.267 21.074 195.267 21.158C195.267 21.266 195.309 21.392 195.393 21.536C195.489 21.68 195.591 21.752 195.699 21.752ZM195.159 23.75C195.291 23.75 195.417 23.75 195.537 23.75C195.669 23.738 195.801 23.732 195.933 23.732H195.969V23.012C195.789 23.024 195.621 23.036 195.465 23.048C195.321 23.06 195.183 23.078 195.051 23.102L195.159 23.75ZM196.959 23.786L197.085 23.12C196.953 23.096 196.815 23.078 196.671 23.066C196.527 23.042 196.365 23.024 196.185 23.012V23.732C196.317 23.744 196.449 23.75 196.581 23.75C196.713 23.75 196.839 23.762 196.959 23.786ZM194.313 23.84C194.421 23.828 194.529 23.816 194.637 23.804C194.745 23.792 194.853 23.78 194.961 23.768L194.853 23.156C194.745 23.18 194.637 23.21 194.529 23.246C194.433 23.282 194.319 23.318 194.187 23.354L194.313 23.84ZM197.805 23.894L197.913 23.408C197.793 23.36 197.679 23.318 197.571 23.282C197.475 23.246 197.373 23.216 197.265 23.192L197.175 23.804C197.283 23.816 197.385 23.828 197.481 23.84C197.589 23.852 197.697 23.87 197.805 23.894ZM76.6178 45.39C79.9058 45.57 82.1318 45.66 83.2958 45.66C83.5718 45.66 83.7878 45.582 83.9438 45.426C84.1118 45.258 84.1958 45.036 84.1958 44.76V43.14H80.0558C78.7958 43.14 77.8778 42.858 77.3018 42.294C76.7378 41.718 76.4558 40.8 76.4558 39.54V39C76.4558 37.74 76.7378 36.828 77.3018 36.264C77.8778 35.688 78.7958 35.4 80.0558 35.4H86.3738V37.92H80.7758C80.0558 37.92 79.6958 38.28 79.6958 39V39.36C79.6958 40.08 80.0558 40.44 80.7758 40.44H84.0158C85.1918 40.44 86.0558 40.716 86.6078 41.268C87.1598 41.82 87.4358 42.684 87.4358 43.86V44.76C87.4358 45.936 87.1598 46.8 86.6078 47.352C86.0558 47.904 85.1918 48.18 84.0158 48.18C83.4038 48.18 82.7558 48.168 82.0718 48.144L80.4158 48.072C79.1918 48.012 77.9258 47.928 76.6178 47.82V45.39ZM98.0544 35.4H101.294V44.58C101.294 45.84 101.006 46.758 100.43 47.334C99.8664 47.898 98.9544 48.18 97.6944 48.18H93.5544C92.2944 48.18 91.3764 47.898 90.8004 47.334C90.2364 46.758 89.9544 45.84 89.9544 44.58V35.4H93.1944V44.58C93.1944 45.3 93.5544 45.66 94.2744 45.66H96.9744C97.6944 45.66 98.0544 45.3 98.0544 44.58V35.4ZM115.154 47.73C112.346 48.03 109.766 48.18 107.414 48.18C106.238 48.18 105.374 47.904 104.822 47.352C104.27 46.8 103.994 45.936 103.994 44.76V39C103.994 37.74 104.276 36.828 104.84 36.264C105.416 35.688 106.334 35.4 107.594 35.4H114.074V37.92H108.314C107.594 37.92 107.234 38.28 107.234 39V44.76C107.234 45.036 107.312 45.258 107.468 45.426C107.636 45.582 107.858 45.66 108.134 45.66C109.514 45.66 110.774 45.63 111.914 45.57V42.96H109.574V40.8H115.154V47.73ZM128.658 47.73C125.85 48.03 123.27 48.18 120.918 48.18C119.742 48.18 118.878 47.904 118.326 47.352C117.774 46.8 117.498 45.936 117.498 44.76V39C117.498 37.74 117.78 36.828 118.344 36.264C118.92 35.688 119.838 35.4 121.098 35.4H127.578V37.92H121.818C121.098 37.92 120.738 38.28 120.738 39V44.76C120.738 45.036 120.816 45.258 120.972 45.426C121.14 45.582 121.362 45.66 121.638 45.66C123.018 45.66 124.278 45.63 125.418 45.57V42.96H123.078V40.8H128.658V47.73ZM141.351 48H131.361V35.4H141.351V37.92H134.601V40.35H139.911V42.87H134.601V45.48H141.351V48ZM143.309 45.39C146.597 45.57 148.823 45.66 149.987 45.66C150.263 45.66 150.479 45.582 150.635 45.426C150.803 45.258 150.887 45.036 150.887 44.76V43.14H146.747C145.487 43.14 144.569 42.858 143.993 42.294C143.429 41.718 143.147 40.8 143.147 39.54V39C143.147 37.74 143.429 36.828 143.993 36.264C144.569 35.688 145.487 35.4 146.747 35.4H153.065V37.92H147.467C146.747 37.92 146.387 38.28 146.387 39V39.36C146.387 40.08 146.747 40.44 147.467 40.44H150.707C151.883 40.44 152.747 40.716 153.299 41.268C153.851 41.82 154.127 42.684 154.127 43.86V44.76C154.127 45.936 153.851 46.8 153.299 47.352C152.747 47.904 151.883 48.18 150.707 48.18C150.095 48.18 149.447 48.168 148.763 48.144L147.107 48.072C145.883 48.012 144.617 47.928 143.309 47.82V45.39ZM161.869 48H158.629V37.92H154.849V35.4H165.649V37.92H161.869V48ZM173.751 48H167.271V45.48H168.891V37.92H167.271V35.4H173.751V37.92H172.131V45.48H173.751V48ZM184.37 38.82C184.37 38.1 184.01 37.74 183.29 37.74H180.23C179.51 37.74 179.15 38.1 179.15 38.82V44.58C179.15 45.3 179.51 45.66 180.23 45.66H183.29C184.01 45.66 184.37 45.3 184.37 44.58V38.82ZM187.61 44.58C187.61 45.84 187.322 46.758 186.746 47.334C186.182 47.898 185.27 48.18 184.01 48.18H179.51C178.25 48.18 177.332 47.898 176.756 47.334C176.192 46.758 175.91 45.84 175.91 44.58V38.82C175.91 37.56 176.192 36.648 176.756 36.084C177.332 35.508 178.25 35.22 179.51 35.22H184.01C185.27 35.22 186.182 35.508 186.746 36.084C187.322 36.648 187.61 37.56 187.61 38.82V44.58ZM201.298 48H197.878L193.558 40.44V48H190.318V35.4H193.738L198.058 42.96V35.4H201.298V48ZM203.989 45.39C207.277 45.57 209.503 45.66 210.667 45.66C210.943 45.66 211.159 45.582 211.315 45.426C211.483 45.258 211.567 45.036 211.567 44.76V43.14H207.427C206.167 43.14 205.249 42.858 204.673 42.294C204.109 41.718 203.827 40.8 203.827 39.54V39C203.827 37.74 204.109 36.828 204.673 36.264C205.249 35.688 206.167 35.4 207.427 35.4H213.745V37.92H208.147C207.427 37.92 207.067 38.28 207.067 39V39.36C207.067 40.08 207.427 40.44 208.147 40.44H211.387C212.563 40.44 213.427 40.716 213.979 41.268C214.531 41.82 214.807 42.684 214.807 43.86V44.76C214.807 45.936 214.531 46.8 213.979 47.352C213.427 47.904 212.563 48.18 211.387 48.18C210.775 48.18 210.127 48.168 209.443 48.144L207.787 48.072C206.563 48.012 205.297 47.928 203.989 47.82V45.39Z" fill="#9B4747"/>
</svg>
